<svg width="141" height="28" viewBox="0 0 141 28" fill="none" xmlns="http://www.w3.org/2000/svg">
<g clip-path="url(#clip0)">
<path d="M22.7506 4.78254C21.8027 3.83235 20.6177 3.00094 19.1958 2.36749C17.8134 1.73403 16.352 1.25894 14.8511 1.0214C13.3502 0.783852 11.6913 0.625488 9.95339 0.625488H0V27.389H10.7038C12.7577 27.389 14.6536 27.1118 16.431 26.5576C18.2084 26.0033 19.8278 25.2115 21.2892 24.1425C22.7506 23.0735 23.8565 21.6483 24.686 19.9063C25.5154 18.1247 25.9499 16.1055 25.9499 13.8489C25.9499 11.8693 25.6734 10.0877 25.081 8.54368C24.4885 7.03922 23.738 5.77231 22.7506 4.78254ZM10.3089 19.7083H8.64997V8.30613H10.6643C12.5602 8.30613 14.1006 8.78122 15.2066 9.77099C16.3125 10.7608 16.8655 12.1069 16.8655 13.8093C16.8655 17.7288 14.6931 19.7083 10.3089 19.7083Z" fill="#00AC5B"/>
<path d="M52.2158 -0.0871582C50.8333 -0.0871582 49.4904 0.0712067 48.2265 0.427525C46.9626 0.783844 45.7777 1.29853 44.6717 2.01116C43.5658 2.7238 42.6968 3.67398 42.0254 4.9013C41.3539 6.12861 41.0379 7.5143 41.0379 9.09794C41.0379 11.2358 41.6699 12.8987 42.8943 14.0864C44.1188 15.2741 45.8172 16.2243 47.95 16.9369C49.9249 17.61 51.2283 18.0851 51.7813 18.3622C52.3737 18.6789 52.6502 19.0749 52.6502 19.5499C52.6502 20.3814 51.9788 20.8169 50.6359 20.8169C49.5694 20.8169 48.5425 20.5793 47.476 20.0646C46.6071 19.6291 45.8566 19.1144 45.2642 18.5602L39.5765 24.2613C40.959 25.449 42.5783 26.3992 44.5532 27.1118C46.5676 27.8244 48.6215 28.2204 50.7148 28.2204C53.6772 28.2204 56.2445 27.3889 58.4564 25.7261C60.6287 24.0633 61.7347 21.6879 61.7347 18.6789C61.7347 17.9267 61.6162 17.2141 61.4187 16.541C61.2212 15.868 60.9447 15.3137 60.6287 14.8386C60.3128 14.3635 59.9178 13.8884 59.3648 13.4529C58.8118 13.0174 58.3379 12.6215 57.9034 12.3444C57.4689 12.0673 56.8765 11.7901 56.1655 11.4734C55.4545 11.1567 54.8621 10.9587 54.4671 10.8003C54.0326 10.6816 53.4797 10.4836 52.7292 10.2065C51.6628 9.85017 50.9518 9.57303 50.6359 9.37507C50.2804 9.17712 50.1224 8.89999 50.1224 8.54367C50.1224 7.75185 50.8333 7.31635 52.2947 7.31635C53.0452 7.31635 53.8747 7.5143 54.7436 7.9498C55.573 8.34571 56.2445 8.86039 56.7975 9.49385L62.4061 3.87194C61.0632 2.68421 59.4833 1.73403 57.7059 1.02139C55.81 0.269161 53.9931 -0.0871582 52.2158 -0.0871582Z" fill="#00AC5B"/>
<path d="M86.3022 0.665039H64.223V8.2665H70.7796V27.4285H79.7456V8.2665H86.3022V0.665039Z" fill="#00AC5B"/>
<path d="M93.3328 0.665039L82.8264 27.4285H92.3453L93.6488 23.509H102.141L103.523 27.4285H113.279L102.891 0.665039H93.3328ZM95.7816 16.6202L97.954 10.0085L100.087 16.6202H95.7816Z" fill="#00AC5B"/>
<path d="M133.462 16.5806C134.963 15.9075 136.109 14.9178 136.899 13.6509C137.728 12.384 138.123 10.9587 138.123 9.33546C138.123 7.71223 137.807 6.28695 137.215 5.13882C136.583 3.95109 135.753 3.08009 134.687 2.44663C133.62 1.81318 132.475 1.37768 131.29 1.10054C130.065 0.823405 128.762 0.665039 127.38 0.665039H115.886V27.4285H124.575V17.8475H124.852L129.986 27.4285H140.335L133.462 16.5806ZM126.195 11.9485H124.417V7.63305H126.55C128.367 7.63305 129.315 8.34568 129.315 9.73137C129.355 11.1962 128.288 11.9485 126.195 11.9485Z" fill="#00AC5B"/>
<path d="M28.3197 27.4284H37.3646V4.10938L28.3197 13.1757V27.4284Z" fill="#00AC5B"/>
<path d="M28.3197 9.73137L37.3646 0.665039H28.3197V9.73137Z" fill="#EE1C23"/>
</g>
<defs>
<clipPath id="clip0">
<rect width="141" height="28" fill="white"/>
</clipPath>
</defs>
</svg>
