<?xml version="1.0" encoding="UTF-8" standalone="no"?>
<!-- Created with Inkscape (http://www.inkscape.org/) -->

<svg
   xmlns:dc="http://purl.org/dc/elements/1.1/"
   xmlns:cc="http://creativecommons.org/ns#"
   xmlns:rdf="http://www.w3.org/1999/02/22-rdf-syntax-ns#"
   xmlns:svg="http://www.w3.org/2000/svg"
   xmlns="http://www.w3.org/2000/svg"
   xmlns:sodipodi="http://sodipodi.sourceforge.net/DTD/sodipodi-0.dtd"
   xmlns:inkscape="http://www.inkscape.org/namespaces/inkscape"
   width="428.66403"
   height="92.564308"
   viewBox="0 0 113.41735 24.490973"
   version="1.1"
   id="svg81"
   inkscape:version="0.92.0 r15299"
   sodipodi:docname="metabo.svg">
  <defs
     id="defs75" />
  <sodipodi:namedview
     id="base"
     pagecolor="#ffffff"
     bordercolor="#666666"
     borderopacity="1.0"
     inkscape:pageopacity="0.0"
     inkscape:pageshadow="2"
     inkscape:zoom="2.1023567"
     inkscape:cx="213.33202"
     inkscape:cy="45.282156"
     inkscape:document-units="mm"
     inkscape:current-layer="layer1"
     showgrid="false"
     fit-margin-top="0"
     fit-margin-left="0"
     fit-margin-right="0"
     fit-margin-bottom="0"
     units="px"
     inkscape:window-width="1280"
     inkscape:window-height="744"
     inkscape:window-x="-4"
     inkscape:window-y="-4"
     inkscape:window-maximized="1"
     inkscape:measure-start="0,0"
     inkscape:measure-end="0,0" />
  <metadata
     id="metadata78">
    <rdf:RDF>
      <cc:Work
         rdf:about="">
        <dc:format>image/svg+xml</dc:format>
        <dc:type
           rdf:resource="http://purl.org/dc/dcmitype/StillImage" />
        <dc:title></dc:title>
      </cc:Work>
    </rdf:RDF>
  </metadata>
  <g
     inkscape:label="Layer 1"
     inkscape:groupmode="layer"
     id="layer1"
     transform="translate(-64.508286,-186.21613)">
    <g
       id="g178"
       style="fill:#284643;fill-opacity:1"
       transform="translate(0.26458223,-0.26457833)">
      <path
         d="m 167.07561,205.4512 c 1.78753,0 3.23674,-1.56726 3.23674,-3.49995 0,-1.93269 -1.44921,-3.49966 -3.23674,-3.49966 -1.78893,0 -3.23814,1.56697 -3.23814,3.49966 0,1.93269 1.44921,3.49995 3.23814,3.49995 z m -8.6681,-3.33252 c 0,-4.63173 3.85586,-8.38634 8.64941,-8.38634 4.79354,0 8.64975,3.75461 8.64975,8.38634 0,4.63158 -3.85621,8.38604 -8.64975,8.38604 -4.79355,0 -8.64941,-3.75446 -8.64941,-8.38604"
         style="fill:#284643;fill-opacity:1;fill-rule:nonzero;stroke:none;stroke-width:0.03527778"
         id="path22"
         inkscape:connector-curvature="0" />
      <path
         d="m 71.305996,194.38759 h -6.79771 v 4.54201 h 1.47161 v 6.42885 h -1.47161 v 4.63819 l 6.93166,-6.9e-4 v -9.76065 c -0.007,-0.86416 0.27425,-1.73425 1.55071,-1.73425 1.2937,0 1.57303,0.87009 1.56834,1.74473 v 9.75086 l 5.33703,-6.9e-4 -4.23e-4,-9.75017 c 0.002,-0.87464 0.28152,-1.74473 1.54051,-1.74473 1.27621,0 1.55565,0.87009 1.56214,1.74473 l -5.82e-4,9.75017 6.94891,6.9e-4 v -4.63819 h -1.471595 v -6.42885 c 0,-3.51853 -1.83815,-5.19793 -4.42059,-5.19793 -1.80498,0 -3.32521,0.69878 -4.51707,2.03066 -0.73258,-1.21225 -1.57706,-2.03055 -3.91777,-2.03066 -1.93009,0.0207 -3.20658,0.68432 -4.31356,1.9739 v -1.31798"
         style="fill:#284643;fill-opacity:1;fill-rule:nonzero;stroke:none;stroke-width:0.03527778"
         id="path24"
         inkscape:connector-curvature="0" />
      <path
         d="m 116.17366,189.37596 h -5.29096 v 5.02362 h -1.45415 v 4.52949 h 1.45415 v 6.42938 h -1.49367 v 4.63819 h 8.30651 v -4.63819 h -1.47602 v -6.42938 h 1.39806 v -4.52949 h -1.44392 v -5.02362"
         style="fill:#284643;fill-opacity:1;fill-rule:nonzero;stroke:none;stroke-width:0.03527778"
         id="path26"
         inkscape:connector-curvature="0" />
      <path
         d="m 127.28757,205.40985 c 1.77765,0 3.21839,-1.55787 3.21839,-3.47927 0,-1.92126 -1.44074,-3.47899 -3.21839,-3.47899 -1.778,0 -3.21875,1.55773 -3.21875,3.47899 0,1.9214 1.44075,3.47927 3.21875,3.47927 z m 3.08151,-9.93567 v -1.09072 h 6.77334 v 4.54561 h -1.28764 v 6.42938 h 1.26823 v 4.6375 l -6.88057,0.003 0.005,-1.09141 c -1.20544,1.03284 -2.66982,1.59742 -4.29083,1.59742 -3.99062,0 -7.22524,-3.70514 -7.22524,-8.2758 0,-4.57027 3.23462,-8.27525 7.22524,-8.27525 1.65488,0 3.1944,0.44828 4.41254,1.52051"
         style="fill:#284643;fill-opacity:1;fill-rule:nonzero;stroke:none;stroke-width:0.03527778"
         id="path28"
         inkscape:connector-curvature="0" />
      <path
         d="m 148.88321,205.39951 c 1.77518,0 3.21416,-1.55511 3.21416,-3.47405 0,-1.91837 -1.43898,-3.47387 -3.21416,-3.47387 -1.77482,0 -3.21345,1.5555 -3.21345,3.47387 0,1.91894 1.43863,3.47405 3.21345,3.47405 z m 1.31975,-11.42227 c 3.98462,0 7.21571,3.69976 7.21571,8.26382 0,4.56364 -3.23109,8.26366 -7.21571,8.26366 -1.61855,0 -3.09528,-0.56292 -4.29895,-1.5937 v 1.08493 h -6.87141 v -4.6375 h 1.28623 v -12.47567 h -1.28623 v -4.49806 h 6.76381 v 7.11084 c 1.21673,-1.07089 2.75378,-1.51832 4.40655,-1.51832"
         style="fill:#284643;fill-opacity:1;fill-rule:nonzero;stroke:none;stroke-width:0.03527778"
         id="path30"
         inkscape:connector-curvature="0" />
      <path
         d="m 102.26857,200.40397 c 0,-1.46858 -1.24672,-2.68055 -2.763063,-2.68055 -1.324161,0 -2.710331,1.21917 -2.710331,2.68055 z m -0.0864,5.09683 h 5.58834 c -0.61278,2.43636 -3.77295,5.18858 -8.217845,5.20622 -4.47312,0.0179 -8.59402,-3.08749 -8.59374,-8.43979 1.4e-4,-4.48567 3.158881,-8.36623 8.59374,-8.44035 5.247805,-0.0713 8.573805,3.98047 8.594255,8.44035 0.002,0.46782 -0.0455,0.83923 -0.12311,1.28641 H 96.811866 c 0.0396,1.98395 1.10821,2.76874 2.671191,2.87733 0.788113,0.0547 2.012603,-0.14951 2.699113,-0.93017"
         style="fill:#284643;fill-opacity:1;fill-rule:nonzero;stroke:none;stroke-width:0.03527778"
         id="path32"
         inkscape:connector-curvature="0" />
      <path
         d="m 175.29675,188.56457 c 0.35736,-0.011 0.43956,-0.15946 0.43956,-0.34632 0,-0.18133 -0.0822,-0.27478 -0.38418,-0.27478 h -0.45649 v 0.6211 z m -0.40111,0.37923 v 1.0498 h -0.37924 v -2.42937 h 0.78634 c 0.44521,0 0.90664,0.12086 0.90664,0.67056 0,0.28028 -0.17004,0.5001 -0.49494,0.5661 v 0.011 c 0.33549,0.0659 0.37429,0.21427 0.41275,0.47815 0.0328,0.23082 0.0603,0.4837 0.14287,0.70351 h -0.48366 c -0.0279,-0.13755 -0.066,-0.29132 -0.0822,-0.43437 -0.0279,-0.20878 -0.0279,-0.40115 -0.13794,-0.51647 -0.0938,-0.099 -0.21943,-0.088 -0.35172,-0.099 z m 2.13818,-0.1374 c 0,-0.9343 -0.75811,-1.69827 -1.69827,-1.69827 -0.94544,0 -1.70956,0.76397 -1.70956,1.69827 0,0.94534 0.76412,1.70921 1.70956,1.70921 0.94016,0 1.69827,-0.76387 1.69827,-1.70921 z m -3.77013,0 c 0,-1.13785 0.92322,-2.06111 2.07186,-2.06111 1.143,0 2.06093,0.92326 2.06093,2.06111 0,1.14861 -0.91793,2.07204 -2.06093,2.07204 -1.14864,0 -2.07186,-0.92343 -2.07186,-2.07204"
         style="fill:#284643;fill-opacity:1;fill-rule:nonzero;stroke:none;stroke-width:0.03527778"
         id="path34"
         inkscape:connector-curvature="0" />
    </g>
  </g>
</svg>
